<?xml version="1.0" encoding="UTF-8"?>
<svg width="28px" height="30px" viewBox="0 0 28 30" version="1.1" xmlns="http://www.w3.org/2000/svg" xmlns:xlink="http://www.w3.org/1999/xlink">
    <!-- Generator: Sketch 53.2 (72643) - https://sketchapp.com -->
    <title>baseline-accessibility_new-24px</title>
    <desc>Created with Sketch.</desc>
    <g id="Page-1" stroke="none" stroke-width="1" fill="none" fill-rule="evenodd">
        <g id="baseline-accessibility_new-24px" transform="translate(-4.000000, -3.000000)">
            <polygon id="Path" points="0 0 36 0 36 36 0 36"></polygon>
            <path d="M30.75,9 C26.835,10.05 22.245,10.5 18,10.5 C13.755,10.5 9.165,10.05 5.25,9 L4.5,12 C7.29,12.75 10.5,13.245 13.5,13.5 L13.5,33 L16.5,33 L16.5,24 L19.5,24 L19.5,33 L22.5,33 L22.5,13.5 C25.5,13.245 28.71,12.75 31.5,12 L30.75,9 Z M18,9 C19.65,9 21,7.65 21,6 C21,4.35 19.65,3 18,3 C16.35,3 15,4.35 15,6 C15,7.65 16.35,9 18,9 Z" id="Shape" fill="#2F89FC" fill-rule="nonzero"></path>
        </g>
    </g>
</svg>