<svg height="22" viewBox="0 0 34 22" width="34" xmlns="http://www.w3.org/2000/svg"><g fill="none" fill-rule="evenodd" transform="translate(-1 -7)"><path d="m0 0h36v36h-36z"/><path d="m24 16.5c2.49 0 4.485-2.01 4.485-4.5s-1.995-4.5-4.485-4.5-4.5 2.01-4.5 4.5 2.01 4.5 4.5 4.5zm-12 0c2.49 0 4.485-2.01 4.485-4.5s-1.995-4.5-4.485-4.5-4.5 2.01-4.5 4.5 2.01 4.5 4.5 4.5zm0 3c-3.495 0-10.5 1.755-10.5 5.25v3.75h21v-3.75c0-3.495-7.005-5.25-10.5-5.25zm12 0c-.435 0-.93.03-1.455.075 1.74 1.26 2.955 2.955 2.955 5.175v3.75h9v-3.75c0-3.495-7.005-5.25-10.5-5.25z" fill="#2f89fc" fill-rule="nonzero"/></g></svg>