<svg height="1200" viewBox="0 0 1600 1200" width="1600" xmlns="http://www.w3.org/2000/svg"><g fill="none" transform="translate(-590 -735)"><path d="m745 1758h1286v1355h-1286z" fill="#ee6352" transform="matrix(.7313537 .68199836 -.68199836 .7313537 2033.888068 -292.325664)"/><path d="m667 1101.56549c143.04175 0 259-115.958252 259-259.000002 0-137.049738-106.759949-250.154728-242.923604-258.508206-16.537451-1.014553-30.766161 11.569242-31.780714 28.106693s11.569242 30.766161 28.106693 31.780714c104.559566 6.414605 186.597625 93.328415 186.597625 198.620799 0 109.904665-89.095335 199.000002-199 199.000002-16.568542 0-30 13.43146-30 30s13.431458 30 30 30z" fill="#ee6352" transform="matrix(-1 0 0 1 1563 0)"/><path d="m1200 590h1658v1355h-1658z" fill="#2f89fc" transform="matrix(.7313537 .68199836 -.68199836 .7313537 1409.516261 -1043.265489)"/><path d="m966.233169 1594.78101c-15.87375 7.11889-34.512968.02167-41.631859-15.85208-7.11889-15.87375-.021674-34.51297 15.852076-41.63186 97.493444-43.72282 182.282184-112.08834 245.923054-197.91709 8.73821-11.78473 24.45512-15.97671 37.90155-10.10902 19.90737 8.68708 41.46721 13.22904 63.72201 13.22904 88.08942 0 159.5-71.41058 159.5-159.5 0-57.75593-30.93031-110.08425-80.10476-138.37247-25.32954-14.57114-18.88876-52.78525 9.81754-58.248944 162.15747-30.863567 281.28722-173.302704 281.28722-340.378586 0-191.366666-155.13333-346.5-346.5-346.5-105.16924 0-202.56302 47.101888-268.01273 126.865872-11.03542 13.448941-30.88392 15.405484-44.33286 4.370062-13.448941-11.035422-15.405485-30.883919-4.370063-44.33286 77.291883-94.196121 192.478583-149.903074 316.715653-149.903074 226.16061 0 409.5 183.339395 409.5 409.5 0 197.464982-140.76538 365.77307-332.50784 402.26757l9.81754-58.248943c68.52136 39.417773 111.6903 112.451573 111.6903 192.981373 0 122.88336-99.61664 222.5-222.5 222.5-30.96728 0-61.10104-6.34821-88.91906-18.4873l12.59852-28.87087 25.30302 18.76185c-70.05177 94.47477-163.37934 169.72519-270.749311 217.87733zm69.495371-1215.475569c14.95534 8.88777 19.87407 28.216427 10.9863 43.171764-8.88777 14.955336-28.21643 19.87407-43.17176 10.9863-95.305125-56.63865-204.166072-86.963505-317.54308-86.963505-343.800389 0-622.4999997 278.705875-622.4999997 622.520277.0002604 8.177024.1580116 16.334583.4724597 24.469849.6719341 17.383984-12.8758628 32.021204-30.2598514 32.693144-17.3839885.67193-32.02120575-12.87587-32.69313981-30.259855-.345756-8.945251-.51946845-17.913389-.51946845-26.902135 0-378.609027 306.90535466-685.52128 685.49999966-685.52128 124.784095 0 244.750981 33.418582 349.72854 95.805441z" fill="#59cd90"/><path d="m2112.31425 1368c377.76277 0 684-306.23723 684-684 0-377.762769-306.23723-684-684-684-109.83956 0-216.02328 25.9369836-311.67012 74.9788173-14.74347 7.5595465-20.56719 25.6397127-13.00764 40.3831807 7.55954 14.743468 25.63971 20.567188 40.38318 13.007641 87.22374-44.7229854 184.03105-68.369639 284.29458-68.369639 344.62569 0 624 279.374316 624 624 0 344.62568-279.37431 624-624 624-16.56854 0-30 13.43146-30 30s13.43146 30 30 30zm-449.01628-168.00236c123.62252 107.6621 281.68523 168.00236 449.01628 168.00236 16.56855 0 30-13.43146 30-30s-13.43145-30-30-30c-152.70656 0-296.81084-55.01164-409.61134-153.24891-12.49449-10.88137-31.44437-9.57368-42.32575 2.92081-10.88137 12.49449-9.57368 31.44437 2.92081 42.32574z" fill="#f79d84"/><path d="m1355 1840h1286v494h-1286z" fill="#fac05e" transform="matrix(.7313537 .68199836 -.68199836 .7313537 1960.085882 -801.967899)"/><circle cx="954" cy="1565" fill="#42b478" r="28"/><path d="m1889.05173 948.728968c-18.77768 0-34-15.222318-34-34 0-18.777681 15.22232-34 34-34s34 15.222319 34 34c0 18.777682-15.22232 34-34 34zm135.92358-11.076425c-18.77768 0-34-15.222318-34-34 0-18.777681 15.22232-34 34-34s34 15.222319 34 34c0 18.777682-15.22232 34-34 34zm153 0c-18.77768 0-34-15.222318-34-34 0-18.777681 15.22232-34 34-34s34 15.222319 34 34c0 18.777682-15.22232 34-34 34zm163.85059-.184506c-18.77768 0-34-15.222318-34-34 0-18.777681 15.22232-34 34-34s34 15.222319 34 34c0 18.777682-15.22232 34-34 34zm-452.77417 120.260933c-9.38884 0-17-7.61116-17-17s7.61116-17 17-17 17 7.61116 17 17-7.61116 17-17 17zm151 0c-9.38884 0-17-7.61116-17-17s7.61116-17 17-17 17 7.61116 17 17-7.61116 17-17 17zm151 0c-9.38884 0-17-7.61116-17-17s7.61116-17 17-17 17 7.61116 17 17-7.61116 17-17 17zm150.77417-.08222c-9.38884 0-17-7.61116-17-17s7.61116-17 17-17 17 7.61116 17 17-7.61116 17-17 17z" fill="#ffe8c2" transform="matrix(.70710678 -.70710678 .70710678 .70710678 -61.769351 1778.0726)"/></g></svg>