<svg height="1200" viewBox="0 0 1600 1200" width="1600" xmlns="http://www.w3.org/2000/svg" xmlns:xlink="http://www.w3.org/1999/xlink"><defs><path id="a" d="m0 0h1600v1200h-1600z"/><mask id="b" fill="#fff"><use fill="#fff" fill-rule="evenodd" xlink:href="#a"/></mask></defs><g fill="none" fill-rule="evenodd"><path d="m0 0h1600v1200h-1600z" fill="#fff"/><g fill-rule="nonzero"><use fill="#e6e9f3" xlink:href="#a"/><g mask="url(#b)"><path d="m662.836465 1477.19875c239.02136 14.54929 412.193085-171.35409 432.786455-431.5556 20.59337-260.201504-193.765095-467.636684-432.786455-431.555587-239.021359 36.081098-414.922904 184.121829-432.786456 431.555587-17.863552 247.43377 193.765097 417.0063 432.786456 431.5556z" fill="#eff3f0" transform="matrix(.77714596 .62932039 -.62932039 .77714596 802.759628 -564.577292)"/><path d="m1526.34062 574c106.92188-19.375 201.5-89.990765 201.5-201s-90.21462-201-201.5-201c-111.28537 0-183.86718 101.492187-201.5 201-17.63281 99.507812 94.57813 220.375 201.5 201z" fill="#eff3f0" transform="matrix(.77714596 .62932039 -.62932039 .77714596 573.332127 -1256.623535)"/><path d="m1426.91932 1004c152.54895 0 251.76497 122.38297 276.21431 276.15936 24.44933 153.7764 0 333.34637 0 479.68128s-113.89342 276.15936-276.21431 276.15936c-162.32088 0-292.51297-129.53536-276.2143-276.15936 16.29866-146.62401-16.29867-321.41858 0-479.68128 16.29866-158.2627 123.66536-276.15936 276.2143-276.15936z" fill="#eff3f0" transform="matrix(.77714596 .62932039 -.62932039 .77714596 1273.24827 -941.190021)"/><path d="m297.98574 821.284088c121.640625 0 210.5-94.244061 210.5-210.5 0-116.25594-103.148438-224.875-210.5-210.5-107.351563 14.375-226.7031252 83.40625-210.5000002 210.5 16.2031252 127.09375 88.8593752 210.5 210.5000002 210.5z" fill="#e89c1d" transform="matrix(.77714596 .62932039 -.62932039 .77714596 448.216604 -431.088381)"/><path d="m497.235616 1480c38.580814 0 66.764384-29.90571 66.764384-66.79627 0-36.89055-32.715638-71.35776-66.764384-66.79626-34.048745 4.5615-71.903536 26.46663-66.764383 66.79626 5.139153 40.32964 28.183569 66.79627 66.764383 66.79627z" fill="#e89c1d" transform="matrix(.77714596 .62932039 -.62932039 .77714596 997.98817 -377.879478)"/><path d="m79.1547332 503c25.3366538 0 43.8452668-19.639569 43.8452668-43.866204 0-24.226636-21.484897-46.861818-43.8452668-43.866204-22.3603701 2.995613-47.2202329 17.381071-43.8452669 43.866204 3.374966 26.485132 18.5086129 43.866204 43.8452669 43.866204z" fill="#e89c1d" transform="matrix(.77714596 .62932039 -.62932039 .77714596 304.463529 -327.426307)"/><path d="m597.991968 1417.95954c12.11629.73752 20.894581-8.68615 21.938484-21.87609 1.043904-13.18994-9.822194-23.70508-21.938484-21.87609-12.11629 1.829-21.032958 9.33337-21.938484 21.87609-.905525 12.54273 9.822194 21.13857 21.938484 21.87609z" fill="#e89c1d" transform="matrix(-.91354546 .40673664 -.40673664 -.91354546 1710.104537 2048.080946)"/><path d="m1319.39035 610c63.91747 0 110.60965-49.545275 110.60965-110.66247 0-61.117194-54.20053-118.219586-110.60965-110.662469-56.40912 7.557116-119.12377 43.847703-110.60965 110.662469s46.69218 110.66247 110.60965 110.66247z" fill="#0e4a91" transform="matrix(.77714596 .62932039 -.62932039 .77714596 605.975352 -1098.869431)"/><path d="m541.154733 787c25.336654 0 43.845267-19.639569 43.845267-43.866204 0-24.226636-21.484897-46.861818-43.845267-43.866204-22.36037 2.995613-47.220233 17.381071-43.845267 43.866204 3.374966 26.485132 18.508613 43.866204 43.845267 43.866204z" fill="#0e4a91" transform="matrix(.77714596 .62932039 -.62932039 .77714596 586.149085 -554.881781)"/><path d="m614.070333 786c11.516661 0 19.929667-8.927077 19.929667-19.939184s-9.765862-21.300826-19.929667-19.939183c-10.163804 1.361642-21.463742 7.900487-19.929666 19.939183 1.534075 12.038697 8.413005 19.939184 19.929666 19.939184z" fill="#0e4a91" transform="matrix(.77714596 .62932039 -.62932039 .77714596 616.891799 -595.696527)"/><path d="m997.32668 1651c41.87536 0 67.26289-62.9754 73.14578-113.72015 5.8829-50.74475-38.24013-97.07131-92.236229-91.88149-53.996102 5.18981-92.236231 41.13674-92.236231 91.88149s69.45132 113.72015 111.32668 113.72015z" fill="#0e4a91" transform="matrix(.77714596 .62932039 -.62932039 .77714596 1190.250642 -650.811951)"/><g fill="#e2cb33"><path d="m460.930293 1245.66828c97.478258 5.9336 168.101562-69.88281 176.5-176 8.398437-106.117183-79.021742-190.714839-176.5-175.999996-97.478258 14.714844-169.214844 75.089844-176.5 175.999996-7.285156 100.91016 79.021742 170.06641 176.5 176z" transform="matrix(.77714596 .62932039 -.62932039 .77714596 773.476122 -431.883222)"/><path d="m1464.97554 1177.87678c36.89961 2.24609 63.63349-26.45328 66.81266-66.62263 3.17916-40.16936-29.91305-72.19276-66.81266-66.62264s-64.05492 28.42434-66.81266 66.62264c-2.75773 38.1983 29.91305 64.37654 66.81266 66.62263z" transform="matrix(.77714596 .62932039 -.62932039 .77714596 1023.656121 -1054.363536)"/><path d="m590.991968 1257.95954c12.11629.73752 20.894581-8.68615 21.938484-21.87609 1.043904-13.18994-9.822194-23.70508-21.938484-21.87609-12.11629 1.829-21.032958 9.33337-21.938484 21.87609-.905525 12.54273 9.822194 21.13857 21.938484 21.87609z" transform="matrix(.77714596 .62932039 -.62932039 .77714596 907.54674 -476.480759)"/><path d="m1505.99197 1226.95954c12.11629.73752 20.89458-8.68615 21.93848-21.87609 1.04391-13.18994-9.82219-23.70508-21.93848-21.87609-12.11629 1.829-21.03296 9.33337-21.93849 21.87609-.90552 12.54273 9.8222 21.13857 21.93849 21.87609z" transform="matrix(.77714596 .62932039 -.62932039 .77714596 1091.949253 -1059.217392)"/><path d="m617.995984 1200.97977c6.058145.36876 10.44729-4.34308 10.969242-10.93804.521952-6.59497-4.911097-11.85255-10.969242-10.93805s-10.516479 4.66668-10.969242 10.93805c-.452763 6.27136 4.911097 10.56928 10.969242 10.93804z" transform="matrix(.77714596 .62932039 -.62932039 .77714596 884.615061 -503.723696)"/></g><path d="m918.97554 954.876783c36.89961 2.246089 63.633494-26.45328 66.812655-66.622637s-29.913045-72.192761-66.812655-66.622637c-36.899611 5.570123-64.054919 28.424337-66.812656 66.622637s29.913045 64.376548 66.812656 66.622637z" fill="#453264" transform="matrix(.77714596 .62932039 -.62932039 .77714596 761.639369 -760.451053)"/><path d="m142.991968 880.959541c12.11629.737522 20.894581-8.686152 21.938484-21.87609 1.043904-13.189938-9.822194-23.705086-21.938484-21.87609s-21.032958 9.333365-21.938484 21.87609c-.905525 12.542725 9.822194 21.138568 21.938484 21.87609z" fill="#453264" transform="matrix(.77714596 .62932039 -.62932039 .77714596 570.454343 -278.561197)"/><path d="m1398.99197 1383.95954c12.11629.73752 20.89458-8.68615 21.93848-21.87609 1.04391-13.18994-9.82219-23.70508-21.93848-21.87609-12.11629 1.829-21.03296 9.33337-21.93849 21.87609-.90552 12.54273 9.8222 21.13857 21.93849 21.87609z" fill="#453264" transform="matrix(.77714596 .62932039 -.62932039 .77714596 1166.907173 -956.892027)"/><path d="m880.991968 1003.95954c12.11629.73752 20.894581-8.686151 21.938484-21.876089 1.043904-13.189938-9.822194-23.705086-21.938484-21.87609s-21.032958 9.333365-21.938484 21.87609c-.905525 12.542725 9.822194 21.138569 21.938484 21.876089z" fill="#453264" transform="matrix(-.4539905 .89100652 -.89100652 -.4539905 2153.934037 262.841923)"/><path d="m1585.97554 777.876783c36.89961 2.246089 63.63349-26.45328 66.81266-66.622637 3.17916-40.169357-29.91305-72.192761-66.81266-66.622637-36.89961 5.570123-64.05492 28.424337-66.81266 66.622637-2.75773 38.1983 29.91305 64.376548 66.81266 66.622637z" fill="#2f89fc" transform="matrix(.77714596 .62932039 -.62932039 .77714596 798.893303 -1219.652919)"/><path d="m1255.5 668c111.28538 0 183.66406 89.296875 201.5 201.5s0 243.22656 0 350-83.08594 201.5-201.5 201.5-213.38997-94.51562-201.5-201.5c11.88997-106.98437-11.88997-234.523437 0-350 11.88997-115.476562 90.21462-201.5 201.5-201.5z" fill="#2f89fc" transform="matrix(.77714596 .62932039 -.62932039 .77714596 935.61923 -938.755025)"/><path d="m1115.46696 748.833565c49.84201 3.033897 85.95271-35.731669 90.24695-89.990278 4.29424-54.25861-40.40494-97.514102-90.24695-89.990279s-86.52194 38.394068-90.24695 89.990279c-3.725 51.59621 40.40494 86.956382 90.24695 89.990278z" fill="#d8c196" transform="matrix(.77714596 .62932039 -.62932039 .77714596 661.001158 -935.257512)"/><path d="m1667.90946 1837.54391c136.58363 8.31389 235.53891-97.91661 247.30655-246.60319s-110.72292-267.22097-247.30655-246.6032-237.0988 105.21248-247.30655 246.6032c-10.20774 141.39072 110.72292 238.28931 247.30655 246.60319z" fill="#d8c196" transform="matrix(.77714596 .62932039 -.62932039 .77714596 1370.339958 -1075.368491)"/><path d="m1460.15004 637.662821c17.43116-3.164719 32.84996-14.699123 32.84996-32.831411 0-18.132287-14.70743-32.83141-32.84996-32.83141-18.14254 0-29.97534 16.577769-32.84997 32.83141s15.4188 35.99613 32.84997 32.831411z" fill="#eff3f0" transform="matrix(.77714596 .62932039 -.62932039 .77714596 704.105733 -1163.981078)"/><path d="m1179.1692 460.511586c10.56434-1.918011 19.90907-8.908559 19.90907-19.897824s-8.9136-19.897825-19.90907-19.897825c-10.99548 0-18.16687 10.047133-19.90907 19.897825-1.7422 9.850691 9.34473 21.815836 19.90907 19.897824z" fill="#eff3f0" transform="matrix(.77714596 .62932039 -.62932039 .77714596 538.11388 -1023.80267)"/><path d="m839.5 44c111.285377 0 201.5 90.214623 201.5 201.5s-13 242.148438 0 350c13 107.851563-90.25 214.976563-201.5 201.5-111.25-13.476562-201.5-77.398437-201.5-201.5 0-124.101562 0-228.054687 0-350s90.214623-201.5 201.5-201.5z" fill="#0e4a91" transform="matrix(.77714596 .62932039 -.62932039 .77714596 450.201139 -814.825342)"/></g></g></g></svg>