<svg height="18" viewBox="0 0 34 18" width="34" xmlns="http://www.w3.org/2000/svg" xmlns:xlink="http://www.w3.org/1999/xlink"><mask id="a" fill="#fff"><path d="m0 0h36v36h-36z" fill="#fff" fill-rule="evenodd"/></mask><path d="m34.5 12c0 1.65-1.35 3-3 3-.27 0-.525-.03-.765-.105l-5.34 5.325c.075.24.105.51.105.78 0 1.65-1.35 3-3 3s-3-1.35-3-3c0-.27.03-.54.105-.78l-3.825-3.825c-.24.075-.51.105-.78.105s-.54-.03-.78-.105l-6.825 6.84c.075.24.105.495.105.765 0 1.65-1.35 3-3 3s-3-1.35-3-3 1.35-3 3-3c.27 0 .525.03.765.105l6.84-6.825c-.075-.24-.105-.51-.105-.78 0-1.65 1.35-3 3-3s3 1.35 3 3c0 .27-.03.54-.105.78l3.825 3.825c.24-.075.51-.105.78-.105s.54.03.78.105l5.325-5.34c-.075-.24-.105-.495-.105-.765 0-1.65 1.35-3 3-3s3 1.35 3 3z" fill="#2f89fc" mask="url(#a)" transform="translate(-1 -9)"/></svg>